<svg xmlns="http://www.w3.org/2000/svg" viewBox="0 0 1180 610" width="100%" height="100%">
  <defs>
    <!-- Premium Font Stacks -->
    <style>
      .text-sans { font-family: -apple-system, BlinkMacSystemFont, "Segoe UI", Roboto, Helvetica, Arial, sans-serif; }
      .text-mono { font-family: ui-monospace, SFMono-Regular, "SF Mono", Menlo, Consolas, "Liberation Mono", monospace; }
      .glow-pill:hover { filter: url(#super-glow); }
    </style>

    <!-- Background Gradients -->
    <linearGradient id="dark-bg" x1="0%" y1="0%" x2="100%" y2="100%">
      <stop offset="0%" stop-color="#030712" />
      <stop offset="100%" stop-color="#0b1329" />
    </linearGradient>

    <!-- Accent Moving Gradients -->
    <linearGradient id="accent-grad" x1="0%" y1="0%" x2="100%" y2="0%">
      <stop offset="0%" stop-color="#7C3AED">
        <animate attributeName="stop-color" values="#7C3AED;#22D3EE;#10B981;#7C3AED" dur="10s" repeatCount="indefinite" />
      </stop>
      <stop offset="50%" stop-color="#22D3EE">
        <animate attributeName="stop-color" values="#22D3EE;#10B981;#7C3AED;#22D3EE" dur="10s" repeatCount="indefinite" />
      </stop>
      <stop offset="100%" stop-color="#10B981">
        <animate attributeName="stop-color" values="#10B981;#7C3AED;#22D3EE;#10B981" dur="10s" repeatCount="indefinite" />
      </stop>
    </linearGradient>

    <linearGradient id="ascii-grad" x1="0%" y1="0%" x2="0%" y2="100%">
      <stop offset="0%" stop-color="#22D3EE" />
      <stop offset="50%" stop-color="#7C3AED" />
      <stop offset="100%" stop-color="#10B981" />
      <animateTransform attributeName="gradientTransform" type="translate" values="0,0; 0,400; 0,0" dur="8s" repeatCount="indefinite" />
    </linearGradient>

    <linearGradient id="border-shimmer" x1="0%" y1="0%" x2="100%" y2="100%">
      <stop offset="0%" stop-color="rgba(255,255,255,0.08)" />
      <stop offset="30%" stop-color="rgba(34, 211, 238, 0.3)" />
      <stop offset="50%" stop-color="rgba(124, 58, 237, 0.4)" />
      <stop offset="70%" stop-color="rgba(16, 185, 129, 0.3)" />
      <stop offset="100%" stop-color="rgba(255,255,255,0.08)" />
      <animateTransform attributeName="gradientTransform" type="rotate" from="0 590 305" to="360 590 305" dur="12s" repeatCount="indefinite" />
    </linearGradient>

    <!-- Filters -->
    <filter id="blur-bg" x="-20%" y="-20%" width="140%" height="140%">
      <feGaussianBlur stdDeviation="40" />
    </filter>
    
    <filter id="panel-glow" x="-10%" y="-10%" width="120%" height="120%">
      <feDropShadow dx="0" dy="8" stdDeviation="16" flood-color="#000000" flood-opacity="0.6"/>
      <feDropShadow dx="0" dy="0" stdDeviation="4" flood-color="#7C3AED" flood-opacity="0.15"/>
    </filter>

    <filter id="super-glow" x="-20%" y="-20%" width="140%" height="140%">
      <feGaussianBlur stdDeviation="6" result="blur" />
      <feMerge>
        <feMergeNode in="blur" />
        <feMergeNode in="SourceGraphic" />
      </feMerge>
    </filter>

    <!-- Noise Texture Overlay -->
    <filter id="noise">
      <feTurbulence type="fractalNoise" baseFrequency="0.85" numOctaves="3" result="noise" />
      <feColorMatrix type="matrix" values="1 0 0 0 0  0 1 0 0 0  0 0 1 0 0  0 0 0 0.03 0" />
      <feComposite operator="in" in2="SourceGraphic" />
    </filter>

    <!-- Dynamic Typing Clip Paths -->
    <clipPath id="clip-role1">
      <rect x="525" y="140" height="40" width="0">
        <animate attributeName="width" values="0;350;350;0;0" keyTimes="0;0.25;0.9;0.95;1" dur="4s" repeatCount="indefinite" />
      </rect>
    </clipPath>
    <clipPath id="clip-role2">
      <rect x="525" y="140" height="40" width="0">
        <animate attributeName="width" values="0;0;350;350;0" keyTimes="0;0.33;0.58;0.91;1" dur="4s" repeatCount="indefinite" />
      </rect>
    </clipPath>
  </defs>

  <!-- Base Canvas Background -->
  <rect width="1180" height="610" fill="url(#dark-bg)" rx="16" />
  <rect width="1180" height="610" fill="#000" filter="url(#noise)" opacity="0.4" rx="16" />

  <!-- Ambient Floating Background Glows -->
  <g filter="url(#blur-bg)" opacity="0.25">
    <circle cx="200" cy="150" r="180" fill="#7C3AED">
      <animate attributeName="cx" values="200;250;180;200" dur="10s" repeatCount="indefinite"/>
      <animate attributeName="cy" values="150;100;200;150" dur="10s" repeatCount="indefinite"/>
    </circle>
    <circle cx="950" cy="450" r="220" fill="#22D3EE">
      <animate attributeName="cx" values="950;900;1000;950" dur="12s" repeatCount="indefinite"/>
      <animate attributeName="cy" values="450;500;400;450" dur="12s" repeatCount="indefinite"/>
    </circle>
    <circle cx="600" cy="300" r="150" fill="#10B981">
      <animate attributeName="r" values="150;180;130;150" dur="8s" repeatCount="indefinite"/>
    </circle>
  </g>

  <!-- Moving Ambient Particles -->
  <g fill="#fff" opacity="0.3">
    <circle cx="150" cy="450" r="1.5"><animate attributeName="cy" values="450;150;450" dur="9s" repeatCount="indefinite"/></circle>
    <circle cx="400" cy="200" r="2"><animate attributeName="cy" values="200;50;200" dur="7s" repeatCount="indefinite"/></circle>
    <circle cx="850" cy="120" r="1"><animate attributeName="cy" values="120;320;120" dur="11s" repeatCount="indefinite"/></circle>
    <circle cx="1050" cy="500" r="2"><animate attributeName="cy" values="500;250;500" dur="8s" repeatCount="indefinite"/></circle>
  </g>

  <!-- ==================== LEFT SIDE: ASCII ART PORTRAIT ==================== -->
  <g filter="url(#panel-glow)">
    <g>
      <animateTransform attributeName="transform" type="translate" values="0,0; 0,-8; 0,0" dur="6s" repeatCount="indefinite" />
      
      <!-- Backlit Glass Panel -->
      <rect x="40" y="40" width="400" height="530" rx="24" fill="#0F172A" fill-opacity="0.6" stroke="url(#border-shimmer)" stroke-width="1.5" />
      <rect x="41" y="41" width="398" height="528" rx="23" fill="none" stroke="rgba(255,255,255,0.03)" stroke-width="1" />

      <!-- Scanline Sweep Effect -->
      <line x1="42" y1="40" x2="438" y2="40" stroke="rgba(34, 211, 238, 0.15)" stroke-width="2">
        <animate attributeName="y1" values="45;565;45" dur="4s" repeatCount="indefinite" />
        <animate attributeName="y2" values="45;565;45" dur="4s" repeatCount="indefinite" />
      </line>

      <!-- ASCII Content Frame -->
      <g fill="url(#ascii-grad)" class="text-mono" font-size="13" font-weight="700" letter-spacing="2">
        <text x="240" y="120" text-anchor="middle" opacity="0"> ◢◤■■■■■■■■■■◥◣ <animate attributeName="opacity" to="1" begin="0.1s" fill="freeze"/></text>
        <text x="240" y="145" text-anchor="middle" opacity="0">▰▰  ◢◤■■■■■■◥◣  ▰▰<animate attributeName="opacity" to="1" begin="0.2s" fill="freeze"/></text>
        <text x="240" y="170" text-anchor="middle" opacity="0">▰▰ ◢◤   V I N   ◥◣ ▰▰<animate attributeName="opacity" to="1" begin="0.3s" fill="freeze"/></text>
        <text x="240" y="195" text-anchor="middle" opacity="0">▰▰ █     D E V     █ ▰▰<animate attributeName="opacity" to="1" begin="0.4s" fill="freeze"/></text>
        <text x="240" y="220" text-anchor="middle" opacity="0">▰▰ ◥◣  █▀▀▀▀█  ◢◤ ▰▰<animate attributeName="opacity" to="1" begin="0.5s" fill="freeze"/></text>
        <text x="240" y="245" text-anchor="middle" opacity="0">▰▰  ◥◣██████◢◤  ▰▰<animate attributeName="opacity" to="1" begin="0.6s" fill="freeze"/></text>
        <text x="240" y="270" text-anchor="middle" opacity="0">◥◣■■■■■■■■■■◢◤<animate attributeName="opacity" to="1" begin="0.7s" fill="freeze"/></text>
        
        <text x="240" y="320" text-anchor="middle" fill="#94A3B8" font-size="11" letter-spacing="4" opacity="0">[ SYSTEM STATUS: ACTIVE ]<animate attributeName="opacity" to="0.7" begin="0.9s" fill="freeze"/></text>
      </g>

      <!-- Terminal Stats Inside Profile Box -->
      <g class="text-mono" font-size="12" fill="#94A3B8">
        <text x="80" y="390" opacity="0">CORE OS: <tspan fill="#F8FAFC">Ubuntu LTS</tspan><animate attributeName="opacity" to="1" begin="1.1s" fill="freeze"/></text>
        <text x="80" y="420" opacity="0">SHELL:   <tspan fill="#F8FAFC">Zsh / OhMyPosh</tspan><animate attributeName="opacity" to="1" begin="1.3s" fill="freeze"/></text>
        <text x="80" y="445" opacity="0">STABILITY: <tspan fill="#10B981">99.98% ERR_0</tspan><animate attributeName="opacity" to="1" begin="1.5s" fill="freeze"/></text>
        <text x="80" y="470" opacity="0">NETWORK:   <tspan fill="#22D3EE">SECURE_TLS</tspan><animate attributeName="opacity" to="1" begin="1.7s" fill="freeze"/></text>
      </g>
      
      <!-- Micro Dot Matrix Grid Decorative -->
      <circle cx="240" cy="515" r="3" fill="#10B981"><animate attributeName="opacity" values="0.2;1;0.2" dur="2s" repeatCount="indefinite"/></circle>
      <circle cx="225" cy="515" r="2" fill="#7C3AED" opacity="0.6"/>
      <circle cx="255" cy="515" r="2" fill="#22D3EE" opacity="0.6"/>
    </g>
  </g>

  <!-- ==================== RIGHT SIDE: MAIN TERMINAL INTERFACE ==================== -->
  <g filter="url(#panel-glow)">
    <!-- Terminal Panel Base Container -->
    <rect x="475" y="40" width="665" height="530" rx="24" fill="#0F172A" fill-opacity="0.75" stroke="url(#border-shimmer)" stroke-width="1.5" />
    <rect x="476" y="41" width="663" height="528" rx="23" fill="none" stroke="rgba(255,255,255,0.02)" stroke-width="1" />

    <!-- Top Window Chrome (Mac Style Bar) -->
    <g transform="translate(475, 40)">
      <rect width="665" height="42" rx="24" fill="#1E293B" fill-opacity="0.4" />
      <!-- Window Control Action Dots -->
      <circle cx="25" cy="21" r="6" fill="#EF4444" opacity="0.8" />
      <circle cx="45" cy="21" r="6" fill="#F59E0B" opacity="0.8" />
      <circle cx="65" cy="21" r="6" fill="#10B981" opacity="0.8" />
      <!-- Terminal Window Tab Center Title -->
      <text x="332" y="26" class="text-mono" font-size="13" fill="#64748B" text-anchor="middle" letter-spacing="1">vineet@developer:~</text>
    </g>

    <!-- Greeting Area -->
    <g transform="translate(515, 115)">
      <text x="0" y="0" class="text-sans" font-size="20" font-weight="600" fill="#94A3B8">Hi 👋 I'm</text>
      <text x="78" y="0" class="text-sans" font-size="24" font-weight="800" fill="#F8FAFC" letter-spacing="-0.5">Vineet Dwivedi</text>
    </g>

    <!-- Interactive Typing Area Loop -->
    <g class="text-mono" font-size="22" font-weight="700">
      <!-- Role Phrase 1 -->
      <g clip-path="url(#clip-role1)">
        <text x="515" y="165" fill="url(#accent-grad)">Full-Stack Developer</text>
      </g>
      <!-- Role Phrase 2 -->
      <g clip-path="url(#clip-role2)">
        <text x="515" y="165" fill="url(#accent-grad)">Open Source Contributor</text>
      </g>
      <!-- Blinking System Cursor Block -->
      <rect x="515" y="146" width="3" height="22" fill="#22D3EE">
        <animate attributeName="x" values="515;750;750;515;515" keyTimes="0;0.25;0.9;0.95;1" dur="4s" repeatCount="indefinite" />
        <animate attributeName="opacity" values="1;0;1" dur="0.8s" repeatCount="indefinite" />
      </rect>
    </g>

    <!-- Terminal Details Meta Grid Section -->
    <g class="text-mono" font-size="13" fill="#94A3B8" transform="translate(515, 215)">
      <!-- Line Item 1 -->
      <g opacity="0">
        <text x="0" y="0" fill="#7C3AED">📍 Location:</text>
        <text x="140" y="0" fill="#F8FAFC">India</text>
        <animate attributeName="opacity" to="1" begin="0.8s" fill="freeze" />
      </g>
      <!-- Line Item 2 -->
      <g opacity="0">
        <text x="0" y="26" fill="#22D3EE">🎓 Education:</text>
        <text x="140" y="26" fill="#F8FAFC">Computer Science &amp; Engineering</text>
        <animate attributeName="opacity" to="1" begin="1.0s" fill="freeze" />
      </g>
      <!-- Line Item 3 -->
      <g opacity="0">
        <text x="0" y="52" fill="#10B981">🚀 Focus:</text>
        <text x="140" y="52" fill="#F8FAFC">High-Performance Web Apps &amp; AI Integration</text>
        <animate attributeName="opacity" to="1" begin="1.2s" fill="freeze" />
      </g>
      <!-- Line Item 4 -->
      <g opacity="0">
        <text x="0" y="78" fill="#F59E0B">💼 Portfolio:</text>
        <text x="140" y="78" fill="#22D3EE" text-decoration="underline">sysc.vercel.app</text>
        <animate attributeName="opacity" to="1" begin="1.4s" fill="freeze" />
      </g>
    </g>

    <!-- ==================== SKILLS SECTION ==================== -->
    <g transform="translate(515, 340)">
      <text x="0" y="0" class="text-sans" font-size="14" font-weight="700" fill="#64748B" letter-spacing="1.5">TECH STACK ENGINE</text>
      
      <!-- Row 1 Skills Pills -->
      <g transform="translate(0, 18)" class="text-mono" font-size="12" fill="#F8FAFC">
        <!-- Pill 1: React -->
        <g class="glow-pill">
          <rect x="0" y="0" width="70" height="28" rx="8" fill="#1E293B" stroke="rgba(255,255,255,0.06)" />
          <text x="35" y="18" text-anchor="middle">React</text>
        </g>
        <!-- Pill 2: Next.js -->
        <g transform="translate(80, 0)" class="glow-pill">
          <rect x="0" y="0" width="80" height="28" rx="8" fill="#1E293B" stroke="rgba(255,255,255,0.06)" />
          <text x="40" y="18" text-anchor="middle">Next.js</text>
        </g>
        <!-- Pill 3: Node.js -->
        <g transform="translate(170, 0)" class="glow-pill">
          <rect x="0" y="0" width="80" height="28" rx="8" fill="#1E293B" stroke="rgba(255,255,255,0.06)" />
          <text x="40" y="18" text-anchor="middle">Node.js</text>
        </g>
        <!-- Pill 4: TypeScript -->
        <g transform="translate(260, 0)" class="glow-pill">
          <rect x="0" y="0" width="100" height="28" rx="8" fill="#1E293B" stroke="rgba(255,255,255,0.06)" />
          <text x="50" y="18" text-anchor="middle">TypeScript</text>
        </g>
        <!-- Pill 5: Tailwind -->
        <g transform="translate(370, 0)" class="glow-pill">
          <rect x="0" y="0" width="90" height="28" rx="8" fill="#1E293B" stroke="rgba(255,255,255,0.06)" />
          <text x="45" y="18" text-anchor="middle">Tailwind</text>
        </g>
      </g>

      <!-- Row 2 Skills Pills -->
      <g transform="translate(0, 56)" class="text-mono" font-size="12" fill="#F8FAFC">
        <!-- Pill 6: Python -->
        <g class="glow-pill">
          <rect x="0" y="0" width="80" height="28" rx="8" fill="#1E293B" stroke="rgba(255,255,255,0.06)" />
          <text x="40" y="18" text-anchor="middle">Python</text>
        </g>
        <!-- Pill 7: Docker -->
        <g transform="translate(90, 0)" class="glow-pill">
          <rect x="0" y="0" width="80" height="28" rx="8" fill="#1E293B" stroke="rgba(255,255,255,0.06)" />
          <text x="40" y="18" text-anchor="middle">Docker</text>
        </g>
        <!-- Pill 8: Postgres -->
        <g transform="translate(180, 0)" class="glow-pill">
          <rect x="0" y="0" width="90" height="28" rx="8" fill="#1E293B" stroke="rgba(255,255,255,0.06)" />
          <text x="45" y="18" text-anchor="middle">Postgres</text>
        </g>
        <!-- Pill 9: Git -->
        <g transform="translate(280, 0)" class="glow-pill">
          <rect x="0" y="0" width="55" height="28" rx="8" fill="#1E293B" stroke="rgba(255,255,255,0.06)" />
          <text x="27.5" y="18" text-anchor="middle">Git</text>
        </g>
        <!-- Pill 10: Figma -->
        <g transform="translate(345, 0)" class="glow-pill">
          <rect x="0" y="0" width="75" height="28" rx="8" fill="#1E293B" stroke="rgba(255,255,255,0.06)" />
          <text x="37.5" y="18" text-anchor="middle">Figma</text>
        </g>
      </g>
    </g>

    <!-- ==================== SOCIAL ACTION ICONS BAR ==================== -->
    <g transform="translate(515, 475)">
      <line x1="0" y1="0" x2="585" y2="0" stroke="rgba(255,255,255,0.08)" stroke-width="1" />
      
      <g transform="translate(0, 18)">
        <!-- GitHub Link Icon Framework -->
        <g transform="translate(0,0)" opacity="0.7">
          <rect width="32" height="32" rx="8" fill="#1E293B" stroke="rgba(255,255,255,0.1)"/>
          <path d="M16 6C10.5 6 6 10.5 6 16c0 4.4 2.9 8.2 6.8 9.5.5.1.7-.2.7-.5v-1.7c-2.8.6-3.4-1.3-3.4-1.3-.5-1.2-1.1-1.5-1.1-1.5-.9-.6.1-.6.1-.6 1 .1 1.5 1 1.5 1 .9 1.5 2.3 1.1 2.9.8.1-.6.4-1.1.6-1.3-2.2-.3-4.6-1.1-4.6-5 0-1.1.4-2 1-2.7-.1-.3-.4-1.3.1-2.7 0 0 .8-.3 2.8 1 .8-.2 1.7-.3 2.6-.3.9 0 1.8.1 2.6.3 2-1.3 2.8-1 2.8-1 .5 1.4.2 2.4.1 2.7.6.7 1 1.6 1 2.7 0 3.8-2.4 4.7-4.6 4.9.4.3.7.9.7 1.9v2.8c0 .3.2.6.7.5C23.1 24.2 26 20.4 26 16c0-5.5-4.5-10-10-10z" fill="#F8FAFC"/>
          <animate attributeName="opacity" values="0.7;1;0.7" dur="3s" repeatCount="indefinite"/>
        </g>
        
        <!-- LinkedIn Icon Framework -->
        <g transform="translate(48,0)" opacity="0.7">
          <rect width="32" height="32" rx="8" fill="#1E293B" stroke="rgba(255,255,255,0.1)"/>
          <path d="M9 10h3.5v11H9V10zm1.8-1.9c-1.1 0-2.1-.9-2.1-2s1-2 2.1-2 2.1.9 2.1 2-.9 2-2.1 2zM14.3 10h3.4v1.5h.1c.5-.9 1.6-1.8 3.3-1.8 3.5 0 4.2 2.3 4.2 5.3V21h-3.6v-5.6c0-1.3-.1-3.1-1.9-3.1-1.9 0-2.2 1.5-2.2 3V21h-3.3V10z" fill="#F8FAFC"/>
        </g>

        <!-- Twitter / X Icon Framework -->
        <g transform="translate(96,0)" opacity="0.7">
          <rect width="32" height="32" rx="8" fill="#1E293B" stroke="rgba(255,255,255,0.1)"/>
          <path d="M22.2 7h2.7l-6 6.9 7.1 9.4h-5.5l-4.3-5.7-4.9 5.7h-2.8l6.4-7.3-6.7-8.9h5.7l3.9 5.2L22.2 7zm-.9 14.7h1.5L12 8.4h-1.6l10.9 13.3z" fill="#F8FAFC"/>
        </g>

        <!-- Custom Link Icon -->
        <g transform="translate(144,0)" opacity="0.7">
          <rect width="32" height="32" rx="8" fill="#1E293B" stroke="rgba(255,255,255,0.1)"/>
          <path d="M11 15c-.6 0-1-.4-1-1v-3c0-2.2 1.8-4 4-4h3c.6 0 1 .4 1 1s-.4 1-1 1h-3c-1.1 0-2 .9-2 2v3c0 .6-.4 1-1 1zm7-4c.6 0 1 .4 1 1v3c0 1.1-.9 2-2 2h-3c-.6 0-1-.4-1-1s.4-1 1-1h3c2.2 0 4-1.8 4-4v-3c0-.6.4-1 1-1zm-6 3c-.6 0-1-.4-1-1v-2c0-.6.4-1 1-1s1 .4 1 1v2c0 .6-.4 1-1 1z" fill="#F8FAFC"/>
        </g>
      </g>
      
      <!-- Live Processing Indicator Pulser -->
      <g transform="translate(520, 24)">
        <circle cx="0" cy="0" r="4" fill="#10B981">
          <animate attributeName="opacity" values="0.4;1;0.4" dur="1.5s" repeatCount="indefinite"/>
        </circle>
        <text x="12" y="4" class="text-mono" font-size="11" fill="#64748B">SYSTEM LIVE</text>
      </g>
    </g>
  </g>
</svg>
